<svg xmlns="http://www.w3.org/2000/svg" width="383" height="178" viewBox="0 0 383 178" xmlns:xlink="http://www.w3.org/1999/xlink">
  <defs>
    <linearGradient id="c" x1="100%" x2="0%" y1="0%" y2="100%">
      <stop stop-color="#00AEFF" offset="0%"/>
      <stop stop-color="#3369E6" offset="100%"/>
    </linearGradient>
    <rect id="b" width="152" height="156" rx="9.18"/>
    <filter id="a" width="124.3%" height="123.7%" x="-12.2%" y="-9.3%" filterUnits="objectBoundingBox">
      <feOffset dy="4" in="SourceAlpha" result="shadowOffsetOuter1"/>
      <feGaussianBlur stdDeviation="5.5" in="shadowOffsetOuter1" result="shadowBlurOuter1"/>
      <feComposite in="shadowBlurOuter1" in2="SourceAlpha" operator="out" result="shadowBlurOuter1"/>
      <feColorMatrix values="0 0 0 0 0.2 0 0 0 0 0.411764706 0 0 0 0 0.901960784 0 0 0 0.5 0" in="shadowBlurOuter1"/>
    </filter>
    <linearGradient id="f" x1="-5.587%" x2="77.978%" y1="110.762%" y2="8.499%">
      <stop stop-color="#201C38" offset="0%"/>
      <stop stop-color="#3E396B" offset="100%"/>
    </linearGradient>
    <rect id="e" width="152" height="156" x="209" rx="9.18"/>
    <filter id="d" width="124.3%" height="123.7%" x="-12.2%" y="-9.3%" filterUnits="objectBoundingBox">
      <feOffset dy="4" in="SourceAlpha" result="shadowOffsetOuter1"/>
      <feGaussianBlur stdDeviation="5.5" in="shadowOffsetOuter1" result="shadowBlurOuter1"/>
      <feComposite in="shadowBlurOuter1" in2="SourceAlpha" operator="out" result="shadowBlurOuter1"/>
      <feColorMatrix values="0 0 0 0 0.243137255 0 0 0 0 0.223529412 0 0 0 0 0.419607843 0 0 0 0.5 0" in="shadowBlurOuter1"/>
    </filter>
  </defs>
  <g fill="none" fill-rule="evenodd" transform="translate(11 7)">
    <use fill="black" filter="url(#a)" xlink:href="#b"/>
    <use fill="url(#c)" fill-opacity=".95" xlink:href="#b"/>
    <use fill="black" filter="url(#d)" xlink:href="#e"/>
    <use fill="url(#f)" fill-opacity=".9" xlink:href="#e"/>
    <g fill="#FFFFFF" fill-rule="nonzero" transform="translate(243 50)">
      <polygon points="41.64 9.792 41.64 36.601 19.298 36.601"/>
      <path d="M41.6404945.168659004C41.6404945 6.30067023 36.6389002 11.2716475 30.4691209 11.2716475 24.2993416 11.2716475 19.2977473 6.30067023 19.2977473.168659004L41.6404945.168659004zM45.3212637 36.6013793C45.3212637 30.4693681 50.3228581 25.4983908 56.4926374 25.4983908 62.6624167 25.4983908 67.664011 30.4693681 67.664011 36.6013793L45.3212637 36.6013793z"/>
      <polygon points="45.321 26.978 45.321 .169 67.666 .169"/>
      <path d="M57.8191484,59.5366284 C58.9681537,59.5621605 60.0807284,59.1352245 60.9143407,58.3488889 L62.4487912,59.9950958 C61.4353846,61.0308046 60.03,61.8004598 57.8454396,61.8004598 C54.1001374,61.8004598 51.6813462,59.3323372 51.6813462,55.9900383 C51.6506753,54.4433824 52.2537039,52.9507379 53.3520487,51.8546372 C54.4503935,50.7585365 55.9497493,50.1530921 57.506044,50.1772414 C61.2250549,50.1772414 63.3331319,52.9898084 63.1490934,56.8903448 L54.3582692,56.8903448 C54.6689835,58.5104215 55.8138462,59.5437548 57.8167582,59.5437548 L57.8191484,59.5366284 Z M60.4960714,55.0303448 C60.2570604,53.5171648 59.3512088,52.4030651 57.5299451,52.4030651 C55.8401374,52.4030651 54.6618132,53.3532567 54.3582692,55.0303448 L60.4960714,55.0303448 Z"/>
      <polygon points=".096 59.415 6.862 52.584 .256 52.584 .256 50.441 9.998 50.441 9.998 52.629 3.231 59.458 10.089 59.458 10.089 61.603 .096 61.603"/>
      <path d="M17.6868132 59.5366284C18.8358185 59.5621605 19.9483933 59.1352245 20.7820055 58.3488889L22.316456 59.9950958C21.3030495 61.0308046 19.8976648 61.8004598 17.7131044 61.8004598 13.9678022 61.8004598 11.549011 59.3323372 11.549011 55.9900383 11.5183402 54.4433824 12.1213687 52.9507379 13.2197135 51.8546372 14.3180583 50.7585365 15.8174142 50.1530921 17.3737088 50.1772414 21.0927198 50.1772414 23.2007967 52.9898084 23.0167582 56.8903448L14.2259341 56.8903448C14.5366484 58.5104215 15.681511 59.5437548 17.6844231 59.5437548L17.6868132 59.5366284zM20.3637363 55.0303448C20.1247253 53.5171648 19.2188736 52.4030651 17.3976099 52.4030651 15.7078022 52.4030651 14.529478 53.3532567 14.2259341 55.0303448L20.3637363 55.0303448zM37.6251099 55.9876628C37.6251099 52.4244444 40.3092033 50.1819923 43.2633791 50.1819923 44.6994207 50.1629978 46.0704268 50.7760435 47.0086813 51.856705L47.0086813 45.2718774 49.3987912 45.2718774 49.3987912 61.5700383 47.0086813 61.5700383 47.0086813 60.0283525C46.0877615 61.1542017 44.7017142 61.802775 43.2418681 61.7909579 40.3737363 61.7909579 37.6251099 59.5366284 37.6251099 55.9876628M47.1425275 55.9662835C47.0900561 54.0217831 45.4705194 52.4826905 43.5136553 52.5176611 41.5567912 52.5526317 39.9939726 54.1485954 40.0118705 56.0937137 40.0297683 58.0388319 41.6216933 59.6061218 43.5788736 59.6055172 45.631978 59.6055172 47.1425275 57.9759387 47.1425275 55.9662835M64.7050549 59.2016858L66.8704945 58.0852107C67.4539395 59.1189619 68.5655881 59.7463814 69.7577473 59.7147893 71.1105495 59.7147893 71.8108516 59.0235249 71.8108516 58.2419923 71.8108516 57.3488123 70.5034615 57.1468966 69.0813462 56.8570881 67.1692582 56.4556322 65.1782967 55.8285057 65.1782967 53.5314176 65.1782967 51.7664368 66.8681044 50.1368582 69.5306868 50.160613 71.6268132 50.160613 73.1851648 50.9872797 74.0718956 52.3246743L72.0642033 53.4197701C71.5003112 52.5896788 70.5448572 52.1081382 69.5378571 52.1465134 68.251978 52.1465134 67.5970879 52.7712644 67.5970879 53.4862835 67.5970879 54.2891954 68.6343956 54.5124904 70.2596703 54.8711877 72.1096154 55.2726437 74.2057418 55.8760153 74.2057418 58.1968582 74.2057418 59.7361686 72.8529396 61.8123372 69.6501923 61.7909579 67.3054945 61.7909579 65.6587088 60.8526437 64.7098352 59.2016858"/>
      <polygon points="80.695 56.612 78.8 58.667 78.8 61.568 76.409 61.568 76.409 45.27 78.8 45.27 78.8 55.943 83.874 50.405 86.785 50.405 82.385 55.182 86.897 61.568 84.192 61.568"/>
      <path d="M30.3998077,50.1796169 C27.557967,50.1796169 25.1774176,52.0111111 25.1774176,55.0469732 L25.1774176,61.5676628 L27.6129396,61.5676628 L27.6129396,55.348659 C27.6129396,53.5171648 28.6717582,52.422069 30.4810714,52.422069 C32.2903846,52.422069 33.1890659,53.5171648 33.1890659,55.348659 L33.1890659,61.5676628 L35.6126374,61.5676628 L35.6126374,55.0469732 C35.6126374,52.0111111 33.2225275,50.1796169 30.3902473,50.1796169"/>
    </g>
    <path fill="#FFFFFF" d="M76.6991614,55.6728339 C61.0744235,55.6728339 48.3983229,68.2806859 48.3983229,83.8515343 C48.3983229,99.4223827 61.0744235,112 76.6991614,112 C92.3238994,112 105,99.392148 105,83.8212996 C105,68.2504513 92.3542977,55.6728339 76.6991614,55.6728339 Z M76.6991614,103.685469 C65.6949686,103.685469 56.7578616,94.7964801 56.7578616,83.8515343 C56.7578616,72.9065884 65.6949686,64.0175993 76.6991614,64.0175993 C87.7033543,64.0175993 96.6404612,72.9065884 96.6404612,83.8515343 C96.6404612,94.7964801 87.7337526,103.685469 76.6991614,103.685469 Z M76.6991614,68.0690433 L76.6991614,82.8537906 C76.6991614,83.2770758 77.1551363,83.5794224 77.5503145,83.3677798 L90.7431866,76.5649819 C91.0471698,76.4138087 91.1383648,76.0509928 90.9863732,75.7486462 C88.2505241,70.9715704 83.1740042,67.7062274 77.3071279,67.4945848 C77.0031447,67.4945848 76.6991614,67.7364621 76.6991614,68.0690433 Z M58.2169811,57.2148014 L56.4842767,55.491426 C54.7819706,53.7982852 52.0461216,53.7982852 50.3438155,55.491426 L48.2767296,57.5473827 C46.5744235,59.2405235 46.5744235,61.9616426 48.2767296,63.6547834 L49.9790356,65.3479242 C50.2526205,65.6200361 50.6477987,65.5595668 50.8909853,65.2874549 C51.89413,63.9268953 52.9884696,62.6268051 54.2044025,61.4174188 C55.4507338,60.1777978 56.7274633,59.0893502 58.1257862,58.0916065 C58.4297694,57.9101986 58.4601677,57.4869134 58.2169811,57.2148014 Z M85.9706499,52.7400722 L85.9706499,49.323556 C85.9706499,46.9350181 84.0251572,45 81.6236897,45 L71.5010482,45 C69.0995807,45 67.1540881,46.9350181 67.1540881,49.323556 L67.1540881,52.8307762 C67.1540881,53.2238267 67.5188679,53.4959386 67.9140461,53.4052347 C70.7410901,52.5888989 73.7201258,52.1656137 76.7295597,52.1656137 C79.6174004,52.1656137 82.4748428,52.5586643 85.2410901,53.3145307 C85.60587,53.4052347 85.9706499,53.1331227 85.9706499,52.7400722 Z"/>
    <g transform="translate(150 34)">
      <ellipse cx="2.422" cy="33.45" fill="#F8FAFF" fill-opacity=".5" rx="2.422" ry="2.45"/>
      <ellipse cx="2.422" cy="26.45" fill="#F8FAFF" fill-opacity=".5" rx="2.422" ry="2.45"/>
      <ellipse cx="57.422" cy="13.45" fill="#F8FAFF" fill-opacity=".5" rx="2.422" ry="2.45"/>
      <ellipse cx="57.422" cy="2.45" fill="#F8FAFF" fill-opacity=".5" rx="2.422" ry="2.45"/>
      <ellipse cx="2.317" cy="33.332" fill="#C4C8D7" rx="1.317" ry="1.332"/>
      <ellipse cx="2.317" cy="26.332" fill="#C4C8D7" rx="1.317" ry="1.332"/>
      <ellipse cx="57.317" cy="13.332" fill="#C4C8D7" rx="1.317" ry="1.332"/>
      <ellipse cx="57.317" cy="2.332" fill="#C4C8D7" rx="1.317" ry="1.332"/>
      <polygon fill="#C4C8D7" points="38 34.151 38.36 34 38.149 34"/>
      <polygon fill="#C4C8D7" points="2 32.634 2 33.663 37.837 33.663 57.547 13.727 56.828 13 37.415 32.634"/>
      <polygon fill="#C4C8D7" points="34 26.151 34.36 26 34.149 26"/>
      <polygon fill="#C4C8D7" points="3 25.018 3 26.046 34.244 26.046 58.288 1.727 57.569 1 33.823 25.018"/>
    </g>
    <g transform="matrix(1 0 0 -1 150 123)">
      <ellipse cx="2.422" cy="48.428" fill="#F8FAFF" fill-opacity=".5" rx="2.422" ry="2.428"/>
      <ellipse cx="2.422" cy="40.428" fill="#F8FAFF" fill-opacity=".5" rx="2.422" ry="2.428"/>
      <ellipse cx="2.422" cy="32.428" fill="#F8FAFF" fill-opacity=".5" rx="2.422" ry="2.428"/>
      <ellipse cx="57.422" cy="27.428" fill="#F8FAFF" fill-opacity=".5" rx="2.422" ry="2.428"/>
      <ellipse cx="57.422" cy="16.428" fill="#F8FAFF" fill-opacity=".5" rx="2.422" ry="2.428"/>
      <ellipse cx="57.422" cy="2.428" fill="#F8FAFF" fill-opacity=".5" rx="2.422" ry="2.428"/>
      <ellipse cx="2.317" cy="48.32" fill="#C4C8D7" rx="1.317" ry="1.32"/>
      <ellipse cx="2.317" cy="40.32" fill="#C4C8D7" rx="1.317" ry="1.32"/>
      <ellipse cx="2.317" cy="32.32" fill="#C4C8D7" rx="1.317" ry="1.32"/>
      <ellipse cx="57.317" cy="27.32" fill="#C4C8D7" rx="1.317" ry="1.32"/>
      <ellipse cx="57.317" cy="16.32" fill="#C4C8D7" rx="1.317" ry="1.32"/>
      <ellipse cx="57.317" cy="2.32" fill="#C4C8D7" rx="1.317" ry="1.32"/>
      <polygon fill="#C4C8D7" points="38 48.149 38.36 48 38.149 48"/>
      <polygon fill="#C4C8D7" points="2 46.463 2 47.483 37.837 47.483 57.547 27.721 56.828 27 37.415 46.463"/>
      <polygon fill="#C4C8D7" points="34 40.149 34.36 40 34.149 40"/>
      <polygon fill="#C4C8D7" points="3 38.808 3 39.828 34.244 39.828 58.288 15.721 57.569 15 33.823 38.808"/>
      <polygon fill="#C4C8D7" points="3 31.139 3 32.158 27.98 31.946 58.126 1.721 57.407 1 27.559 30.926"/>
    </g>
  </g>
</svg>
