<?xml version="1.0" encoding="UTF-8" standalone="no"?>
<svg width="786px" height="231px" viewBox="0 0 786 231" version="1.1" xmlns="http://www.w3.org/2000/svg" xmlns:xlink="http://www.w3.org/1999/xlink">
    <!-- Generator: Sketch 3.8.2 (29753) - http://www.bohemiancoding.com/sketch -->
    <title>dashlane_logo</title>
    <desc>Created with Sketch.</desc>
    <defs>
        <polygon id="path-1" points="328.626752 0.03 0 0.03 0 227.33575 328.626752 227.33575 328.626752 0.03"></polygon>
    </defs>
    <g id="Page-1" stroke="none" stroke-width="1" fill="none" fill-rule="evenodd">
        <g id="dashlane_logo">
            <g id="Group-3">
                <mask id="mask-2" fill="white">
                    <use xlink:href="#path-1"></use>
                </mask>
                <g id="Clip-2"></g>
                <path d="M183.469,36.481 C182.01,30.491 180.808,27.87 178.665,27.673 C175.329,27.354 171.82,28.535 169.411,28.954 C160.478,30.569 155.678,29.505 150.438,23.905 C147.174,20.411 149.172,20.833 157.086,19.501 C161.875,18.69 165.171,17.802 168.479,16.378 C173.514,13.616 171.724,10.124 166.1,7.443 C161.869,5.405 144.306,5.483 133.013,5.716 C121.563,5.964 110.307,6.437 103.574,0.586 C110.056,1.78 117.932,1.801 123.18,1.516 C140.482,0.559 153.614,-0.518 165.999,0.347 C176.828,1.088 189.089,4.53 201.438,7.658 C213.509,10.695 227.222,12.817 230.108,12.91 C233.197,12.963 231.199,28.346 224.061,30.521 C215.985,32.414 208.175,32.251 203.217,34.954 C196.163,38.76 205.666,60.39 208.708,65.602 C209.584,67.142 212.448,72.698 217.073,76.29 C219.436,78.108 225.19,82.013 230.985,82.452 C258.91,84.602 323.981,84.169 328.438,86.635 C330.806,87.968 310.111,93.776 310.111,93.776 C310.111,93.776 239.916,94.134 210.012,100.221 C180.188,106.315 141.846,120.535 118.465,137.726 C31.788,201.501 -0.37,230.943 0.003,226.984 C0.42,222.53 0.856,214.873 1.567,212.25 C2.528,208.64 6.81,214.884 88.649,135.156 C98.546,125.486 89.184,117.424 78.956,115.47 C66.833,112.77 45.939,103.619 59.043,105.187 C66.464,105.679 104.028,116.863 174.933,61.792 C184.403,54.458 184.77,41.755 183.469,36.481" id="Fill-1" fill="#256271" mask="url(#mask-2)"></path>
            </g>
            <path d="M237.963,171.936 C236.995,170.161 235.22,168.063 233.768,166.933 C230.54,164.351 226.99,163.383 222.955,163.383 C221.342,163.383 217.146,163.706 213.111,166.288 C203.913,172.259 203.59,185.33 203.59,187.751 C203.59,199.693 208.593,213.409 222.794,213.409 C227.958,213.409 231.992,211.796 235.381,207.923 C240.384,202.437 241.675,195.82 241.514,188.558 C241.514,183.394 240.707,176.778 237.963,171.936 L237.963,171.936 Z M241.675,228.579 L241.675,220.833 C240.868,221.64 240.223,222.609 239.416,223.415 C236.35,226.32 229.733,231 219.244,231 C216.5,231 210.69,230.677 204.235,227.611 C195.521,223.576 183.418,213.087 183.418,189.849 C183.418,165.158 196.813,152.409 206.011,148.214 C208.593,147.084 213.272,145.47 220.051,145.47 C222.794,145.47 228.604,145.632 234.736,149.021 C235.865,149.666 236.834,150.15 238.771,151.603 C240.223,152.732 241.353,154.185 241.675,154.507 L241.675,114.647 L260.879,114.647 L260.879,228.579 L241.675,228.579 L241.675,228.579 Z" id="Fill-4" fill="#256271"></path>
            <path d="M321.396,188.397 C318.168,190.01 313.972,191.624 306.064,192.915 C301.708,193.722 297.027,193.883 292.993,196.304 C290.25,198.079 288.313,200.822 288.313,204.372 C288.313,209.214 291.863,213.894 301.546,213.894 C312.197,213.894 318.491,208.407 320.266,204.696 C321.557,202.113 321.396,199.855 321.396,197.273 L321.396,188.397 L321.396,188.397 Z M321.396,228.579 L320.911,222.285 C317.845,224.867 315.102,226.158 313.488,226.804 C308.163,229.225 303.16,230.516 297.189,230.516 C293.316,230.516 278.792,230.031 271.369,218.09 C270.078,215.991 267.657,211.635 267.818,205.18 C267.818,200.661 268.948,191.624 278.792,185.007 C285.408,180.489 291.702,179.521 299.125,178.069 C311.067,175.648 315.425,174.679 321.396,172.581 C321.396,170.484 321.234,167.902 320.266,165.965 C318.652,162.899 314.618,160.478 307.517,160.478 C300.094,160.478 295.414,162.738 293.316,165.481 C291.057,168.224 291.218,171.452 291.218,172.581 L271.53,171.452 C271.691,167.902 272.337,159.349 280.244,152.894 C285.247,148.697 292.832,145.47 306.872,145.47 C320.104,145.47 327.851,148.214 332.854,151.764 C336.242,154.185 338.018,156.928 338.663,158.219 C340.761,162.415 340.761,168.063 340.761,172.581 L340.761,215.508 C340.761,221.64 341.083,223.415 344.311,228.579 L321.396,228.579 L321.396,228.579 Z" id="Fill-5" fill="#256271"></path>
            <path d="M418.867,214.378 C414.994,221.802 404.988,231 385.301,231 C370.131,231 359.319,225.836 354.316,222.77 C351.573,220.994 348.991,218.897 346.57,216.476 L361.094,204.696 C361.74,205.502 362.708,206.954 364.806,208.73 C371.745,214.7 382.073,215.024 384.333,215.024 C389.174,215.024 394.822,213.894 398.05,210.183 C399.341,208.892 400.147,207.116 400.147,205.502 C400.147,204.857 399.986,203.566 398.856,202.113 C396.759,199.208 394.177,199.047 388.206,197.756 C382.88,196.626 377.555,195.982 372.391,194.691 C368.84,193.722 350.121,189.203 350.121,171.775 C350.121,165.642 352.703,161.124 353.832,159.349 C357.867,153.055 367.388,145.47 384.816,145.47 C391.11,145.47 407.409,146.439 419.513,160.478 L405.796,173.227 C404.182,169.838 402.084,167.902 400.793,166.772 C395.79,162.415 390.465,160.962 383.849,160.962 C383.042,160.962 377.555,160.962 374.004,163.383 C371.1,165.32 370.454,167.902 370.454,169.354 C370.615,172.097 372.552,174.034 373.036,174.357 C375.134,175.97 380.459,177.261 386.915,178.391 C391.271,179.198 395.629,179.843 399.986,180.812 C404.344,181.78 409.185,183.233 412.734,185.815 C415.64,187.912 421.61,193.561 421.61,203.405 C421.61,207.278 420.643,210.989 418.867,214.378" id="Fill-6" fill="#256271"></path>
            <path d="M483.902,228.579 L483.902,184.2 C483.902,177.745 484.226,171.936 478.738,167.256 C477.125,165.804 474.059,163.867 468.733,163.867 C462.117,163.867 456.791,166.611 452.757,171.613 C451.144,173.55 449.853,175.97 449.207,178.391 C448.562,180.812 448.562,182.748 448.562,185.33 L448.562,228.579 L429.196,228.579 L429.196,114.647 L448.562,114.647 L448.562,156.121 C450.175,154.346 452.111,152.571 456.308,150.15 C459.373,148.375 465.184,145.47 474.059,145.47 C482.935,145.47 492.617,148.697 497.942,156.121 C502.945,163.222 502.945,170.645 502.945,178.714 L502.945,228.579 L483.902,228.579" id="Fill-7" fill="#256271"></path>
            <polygon id="Fill-8" fill="#256271" points="515.532 228.579 535.221 228.579 535.221 114.647 515.532 114.647"></polygon>
            <path d="M595.092,188.397 C591.865,190.01 587.669,191.624 579.762,192.915 C575.404,193.722 570.725,193.883 566.689,196.304 C563.946,198.079 562.01,200.822 562.01,204.372 C562.01,209.214 565.561,213.894 575.243,213.894 C585.894,213.894 592.188,208.407 593.963,204.696 C595.254,202.113 595.092,199.855 595.092,197.273 L595.092,188.397 L595.092,188.397 Z M595.092,228.579 L594.608,222.285 C591.542,224.867 588.799,226.158 587.185,226.804 C581.859,229.225 576.856,230.516 570.886,230.516 C567.013,230.516 552.488,230.031 545.065,218.09 C543.774,215.991 541.354,211.635 541.516,205.18 C541.516,200.661 542.645,191.624 552.488,185.007 C559.105,180.489 565.398,179.521 572.822,178.069 C584.764,175.648 589.121,174.679 595.092,172.581 C595.092,170.484 594.931,167.902 593.963,165.965 C592.349,162.899 588.314,160.478 581.214,160.478 C573.791,160.478 569.11,162.738 567.013,165.481 C564.754,168.224 564.915,171.452 564.915,172.581 L545.227,171.452 C545.389,167.902 546.033,159.349 553.941,152.894 C558.943,148.697 566.528,145.47 580.568,145.47 C593.801,145.47 601.547,148.214 606.55,151.764 C609.939,154.185 611.714,156.928 612.359,158.219 C614.457,162.415 614.457,168.063 614.457,172.581 L614.457,215.508 C614.457,221.64 614.78,223.415 618.008,228.579 L595.092,228.579 L595.092,228.579 Z" id="Fill-9" fill="#256271"></path>
            <path d="M678.363,228.579 L678.363,187.428 C678.363,181.134 678.363,178.069 677.556,175.002 C675.297,165.642 668.035,164.351 664.162,164.351 C662.063,164.351 658.029,164.674 653.995,168.063 C648.186,172.905 646.41,179.682 646.41,193.561 L646.41,228.579 L626.884,228.579 L626.884,147.891 L646.41,147.891 L646.41,157.412 C646.732,156.928 648.347,154.83 649.961,153.216 C657.545,146.115 668.519,145.47 671.262,145.47 C683.204,145.47 690.144,151.603 692.726,155.314 C697.89,162.738 697.405,172.905 697.405,181.134 L697.405,228.579 L678.363,228.579" id="Fill-10" fill="#256271"></path>
            <path d="M762.118,171.29 C760.344,167.417 756.147,160.962 745.658,160.962 C741.462,160.962 739.203,161.769 737.589,162.415 C728.552,166.126 726.454,175.163 725.97,177.907 L763.732,177.907 C763.732,177.907 763.248,174.034 762.118,171.29 L762.118,171.29 Z M778.256,218.897 C773.737,223.093 762.926,231 746.304,231 C741.14,231 728.391,230.355 717.417,220.188 C708.219,211.474 704.83,200.338 704.83,187.751 C704.83,180.973 705.798,174.518 708.38,168.386 C711.93,160.317 721.936,145.47 745.335,145.47 C763.409,145.47 772.931,154.83 777.127,160.962 C780.838,166.611 784.55,176.454 785.034,192.109 L725.324,192.109 C725.647,194.529 726.454,199.531 730.488,204.372 C733.232,207.762 738.073,212.118 748.078,212.118 C758.084,212.118 763.894,207.439 766.476,204.696 C767.121,204.05 768.09,202.759 769.219,200.984 L785.68,210.505 C784.389,212.28 782.129,215.347 778.256,218.897 L778.256,218.897 Z" id="Fill-11" fill="#256271"></path>
        </g>
    </g>
</svg>