<?xml version="1.0" encoding="utf-8"?>
<!-- Generator: Adobe Illustrator 18.0.0, SVG Export Plug-In . SVG Version: 6.00 Build 0)  -->
<!DOCTYPE svg PUBLIC "-//W3C//DTD SVG 1.1//EN" "http://www.w3.org/Graphics/SVG/1.1/DTD/svg11.dtd">
<svg version="1.1" xmlns="http://www.w3.org/2000/svg" xmlns:xlink="http://www.w3.org/1999/xlink" x="0px" y="0px"
	 viewBox="0 0 323 120" enable-background="new 0 0 323 120" xml:space="preserve">
<g id="Calque_2">
</g>
<g id="Calque_1">
	<g>
		<g>
			<path fill="#07698D" d="M292.6,49.9h-5.5L281.4,66l-6.2-16.1h-6.1l9.4,22.7c-0.8,1.8-1.6,2.3-2.9,2.3c-1,0-2-0.3-2.9-0.8
				l-0.3-0.1l-2,4.3l0.2,0.1c1.6,0.9,3.2,1.4,5.4,1.4c3.7,0,5.9-1.8,7.6-6.5l9.1-23.4H292.6z"/>
			<path fill="#07698D" d="M245.9,49.9c-3.4,0-5.7,1.1-7.3,3.2V41.4h-5.7v31.6h5.7v-3.2c1.6,1.9,3.9,3.2,7.3,3.2
				c5.5,0,10.5-3.7,10.5-11.3C256.4,54.2,251.3,49.9,245.9,49.9z M244.7,54.9c3.3,0,6.1,2.7,6.1,6.9c0,4.3-2.8,6.3-6.1,6.3
				c-3.3,0-6.3-2.5-6.3-6.7C238.4,57.1,241.4,54.9,244.7,54.9z"/>
			<path fill="#07698D" d="M220.9,49.9c-3.3,0-5.7,1.5-7.6,3.7c-1.3-2.3-3.6-3.8-6.7-3.7c-3.2,0-5.1,1.6-6.6,3.3v-3.3h-5.7v23.2h5.7
				V60.5c0-3.4,1.8-5.3,4.5-5.3c2.7,0,4.2,1.8,4.3,5.2v12.8h5.7V60.4c0-3.5,1.9-5.3,4.5-5.3c2.7,0,4.2,1.7,4.3,5.2v12.8h5.7V58.8
				c0-2.8-0.8-5-2.2-6.5C225.5,50.7,223.4,49.9,220.9,49.9z"/>
			<rect x="260.2" y="41.5" fill="#07698D" width="5.7" height="31.6"/>
			<polygon fill="#07698D" points="123.3,64.7 118.5,49.9 118.3,49.9 113.7,49.9 109,64.6 104.7,49.9 98.8,49.9 106.2,73.1 
				111.2,73.1 116.1,58.3 120.9,73.1 125.9,73.1 133.4,49.9 127.7,49.9 			"/>
			<polygon fill="#07698D" points="137.7,73.1 143.4,73.1 143.4,72.8 143.4,49.9 137.7,49.9 			"/>
			<path fill="#07698D" d="M158.4,59.1c-2.7-0.8-4.9-1.3-4.9-2.6v-0.1c0-1.1,0.9-2,2.9-2c1.8,0,4,0.8,6.2,2.1l0.2,0.1l2.3-4.1
				l-0.2-0.1c-2.4-1.6-5.5-2.6-8.4-2.6c-4.6,0-8.2,2.7-8.3,7.1v0.1c0,4.5,3.9,5.6,7.2,6.5c2.7,0.8,4.9,1.2,4.8,2.7v0.1
				c0,1.3-1.1,2.1-3.2,2.1c-2.2,0-4.8-0.9-7.2-2.7l-0.2-0.2l-2.6,3.9l0.2,0.2c2.9,2.2,6.4,3.4,9.7,3.4c4.7,0,8.6-2.4,8.6-7.3v-0.1
				C165.5,61.5,161.7,60.1,158.4,59.1z"/>
			<g>
				<path fill="#07698D" d="M190.6,62L190.6,62c-0.1-6.5-3.8-12.1-11-12.2c-6.6,0-11.2,5.1-11.2,11.7c0,7.1,5.1,11.5,11.8,11.5
					c4.2,0,7.2-1.7,9.4-4.3l-3.4-3c-1.8,1.7-3.4,2.6-5.9,2.6c-3.1,0-5.4-1-6.1-4.4h16.4v0h0.1C190.6,62.8,190.6,62.4,190.6,62z
					 M174,60c0.6-3.2,2.6-5.4,5.5-5.4c3.1,0,4.9,2.3,5.4,5.4H174z"/>
			</g>
			<rect x="137.7" y="41.5" fill="#07698D" width="5.7" height="5.7"/>
		</g>
		<g>
			<polygon fill="#07698D" points="65.4,30.1 34.9,40 34.9,40.1 34.9,40.1 42.4,54.1 42.4,54.1 42.4,54.1 65.4,30.2 65.4,30.1 			
				"/>
			<polygon fill="#F1BC33" points="68.3,34.1 57.2,45.6 57.3,45.6 87.2,60.2 			"/>
			<polygon fill="#F7896D" points="69.9,57.2 65.4,90.1 84.2,64.1 			"/>
			<polygon fill="#F7896D" points="69.9,57.2 69.9,57.2 65.3,90.1 84.3,64.1 69.9,57.1 69.9,57.2 69.9,57.2 69.9,57.2 84.2,64.1 
				65.4,90 69.9,57.2 69.9,57.2 69.9,57.2 			"/>
			<polygon fill="#E25C5B" points="62.8,72.7 30.1,78.6 60.7,88.5 62.9,72.7 			"/>
			<polygon fill="#46B489" points="45.9,70.8 30.2,41.5 30.2,73.7 45.9,70.9 			"/>
		</g>
	</g>
</g>
</svg>
