<?xml version="1.0" encoding="UTF-8"?>
<svg width="625px" height="121px" viewBox="0 0 625 121" version="1.1" xmlns="http://www.w3.org/2000/svg" xmlns:xlink="http://www.w3.org/1999/xlink">
    <!-- Generator: Sketch 41.2 (35397) - http://www.bohemiancoding.com/sketch -->
    <title>zendesk-wordmark-r</title>
    <desc>Created with Sketch.</desc>
    <defs></defs>
    <g id="Page-1" stroke="none" stroke-width="1" fill="none" fill-rule="evenodd">
        <g id="zendesk-wordmark-r" fill="#FFFFFF">
            <g id="Layer_1">
                <path d="M415.53,104.15 C423.804261,104.320206 431.80996,101.210674 437.8,95.5 L448.8,107.41 C441.5,114.9 431.4,120.48 415.68,120.48 C388.73,120.48 371.33,102.62 371.33,78.41 C371.33,54.41 389.67,36.34 413.24,36.34 C440,36.34 455.15,56.7 453.85,84.94 L390.65,84.94 C392.89,96.66 401.13,104.15 415.53,104.15 L415.53,104.15 Z M434.8,71.49 C433.12,60.54 426.57,52.49 413.47,52.49 C401.31,52.49 392.89,59.4 390.64,71.49 L434.8,71.49 Z" id="Shape"></path>
                <polygon id="Shape" points="0.27 103.27 48.94 53.82 1.41 53.82 1.41 38.31 71.5 38.31 71.5 54.14 22.82 103.59 72.15 103.59 72.15 119.1 0.27 119.1"></polygon>
                <path d="M126.8,104.15 C135.074261,104.320206 143.07996,101.210674 149.07,95.5 L160.07,107.41 C152.77,114.9 142.67,120.48 126.95,120.48 C100,120.48 82.6,102.62 82.6,78.41 C82.6,54.41 100.94,36.34 124.51,36.34 C151.27,36.34 166.42,56.7 165.12,84.94 L101.92,84.94 C104.16,96.66 112.4,104.15 126.8,104.15 L126.8,104.15 Z M146.07,71.5 C144.39,60.55 137.84,52.5 124.74,52.5 C112.58,52.5 104.16,59.41 101.91,71.5 L146.07,71.5 L146.07,71.5 Z" id="Shape"></path>
                <path d="M270.26,78.46 C270.26,52.6 289.57,36.46 310.82,36.46 C321.53,36.46 331.76,41.15 337.76,48.59 L337.76,0.89 L355,0.89 L355,118.89 L337.76,118.89 L337.76,107.71 C331.6,115.63 321.37,120.48 310.66,120.48 C290.06,120.48 270.26,104.16 270.26,78.48 M338.74,78.32 C338.74,63.94 327.87,52.14 313.1,52.14 C298.66,52.14 287.46,63.61 287.46,78.32 C287.46,93.03 298.65,104.66 313.1,104.66 C327.87,104.66 338.74,92.86 338.74,78.32" id="Shape"></path>
                <path d="M465.08,101.73 L480.65,93.65 C484.850334,101.128492 492.845672,105.66701 501.42,105.44 C511.16,105.44 516.19,100.44 516.19,94.78 C516.19,88.32 506.78,86.86 496.56,84.78 C482.76,81.87 468.49,77.34 468.49,60.7 C468.49,47.93 480.66,36.13 499.81,36.3 C514.9,36.3 526.1,42.3 532.43,51.97 L518,59.87 C514.27,54.21 507.94,50.66 499.83,50.66 C490.58,50.66 485.83,55.19 485.83,60.36 C485.83,66.18 493.29,67.79 504.98,70.36 C518.28,73.27 533.37,77.63 533.37,94.44 C533.37,105.59 523.64,120.62 500.59,120.44 C483.72,120.44 471.87,113.65 465.06,101.69" id="Shape"></path>
                <polygon id="Shape" points="580.11 82.98 566.47 97.85 566.47 118.86 549.28 118.86 549.28 0.89 566.47 0.89 566.47 78.13 602.98 38.05 623.92 38.05 592.27 72.64 624.73 118.86 605.26 118.86"></polygon>
                <path d="M218.28,36.42 C197.83,36.42 180.71,49.67 180.71,71.65 L180.71,118.85 L198.24,118.85 L198.24,73.85 C198.24,60.6 205.86,52.67 218.84,52.67 C231.82,52.67 238.32,60.6 238.32,73.85 L238.32,118.85 L255.85,118.85 L255.85,71.65 C255.85,49.65 238.73,36.42 218.28,36.42" id="Shape"></path>
            </g>
        </g>
    </g>
</svg>