<?xml version="1.0" encoding="UTF-8" standalone="no"?>
<svg width="144px" height="34px" viewBox="0 0 144 34" version="1.1" xmlns="http://www.w3.org/2000/svg" xmlns:xlink="http://www.w3.org/1999/xlink" xmlns:sketch="http://www.bohemiancoding.com/sketch/ns">
    <!-- Generator: Sketch 3.4.4 (17249) - http://www.bohemiancoding.com/sketch -->
    <title>Untitled 2</title>
    <desc>Created with Sketch.</desc>
    <defs></defs>
    <g id="Page-1" stroke="none" stroke-width="1" fill="none" fill-rule="evenodd" sketch:type="MSPage">
        <g id="Zendesk_logo_RGB" sketch:type="MSLayerGroup" transform="translate(-4.000000, 0.000000)" fill="#FFFFFF">
            <path d="M32.545,19.65 C31.129,20.445 29.588,20.823 28.072,20.823 C27.084,20.823 26.106,20.659 25.28,20.33 C23.77,21.692 22.145,22.646 21.327,23.089 C22.512,24.969 24.396,26.414 26.724,26.994 C27.444,27.174 28.167,27.258 28.876,27.258 C30.468,27.258 32,26.822 33.302,26.121 C33.495,25.377 33.591,24.612 33.591,23.839 C33.591,22.417 33.251,20.98 32.545,19.65" id="Fill-1" sketch:type="MSShapeGroup"></path>
            <path d="M31.023,8.453 C30.916,8.425 30.816,8.379 30.707,8.355 L30.706,8.368 C30.816,8.387 30.915,8.43 31.023,8.453" id="Fill-2" sketch:type="MSShapeGroup"></path>
            <path d="M30.7,8.439 C30.432,10.227 29.658,11.817 28.574,13 C28.631,13.314 28.67,13.658 28.67,14.018 C28.665,16.109 27.586,17.928 26.238,19.392 C26.624,19.44 27.013,19.467 27.399,19.467 C29.321,19.467 31.258,18.851 32.897,17.574 C34.79,16.089 35.929,13.994 36.258,11.858 C34.983,10.181 33.11,8.978 31.023,8.453 C30.915,8.43 30.816,8.387 30.706,8.368 L30.7,8.439" id="Fill-3" sketch:type="MSShapeGroup"></path>
            <path d="M29.277,6.91 C29.277,4.502 28.329,2.32 26.845,0.74 L26.716,0.74 C24.586,0.74 22.72,1.497 21.028,3.028 C22.645,4.747 23.226,6.927 23.226,9.106 C23.226,9.282 23.22,9.456 23.215,9.625 C23.58,9.533 23.948,9.489 24.31,9.489 L24.406,9.489 C25.797,9.517 27.199,10.208 28.003,11.51 C28.809,10.164 29.277,8.594 29.277,6.91" id="Fill-4" sketch:type="MSShapeGroup"></path>
            <path d="M13.207,0.899 C13.074,0.899 12.947,0.899 12.9,0.873 C11.445,2.471 10.571,4.582 10.571,6.882 C10.571,6.915 10.571,6.943 10.559,6.961 C10.66,6.961 10.762,6.958 10.866,6.958 C13.317,6.958 15.56,7.934 17.149,9.505 C18.483,9.599 19.848,10.307 20.567,11.712 C20.953,10.957 21.526,10.405 22.131,10.123 C22.131,10.023 22.135,9.918 22.135,9.815 C22.135,7.353 21.116,4.897 19.134,3.142 C17.43,1.632 15.314,0.899 13.207,0.899" id="Fill-5" sketch:type="MSShapeGroup"></path>
            <path d="M15.983,9.677 C15.983,9.677 15.983,9.677 15.981,9.677 L15.981,9.679 C15.981,9.677 15.983,9.677 15.983,9.677" id="Fill-6" sketch:type="MSShapeGroup"></path>
            <path d="M15.706,9.631 C14.367,8.85 12.829,8.412 11.214,8.412 C10.696,8.412 10.168,8.457 9.646,8.552 C7.273,8.978 5.289,10.298 4,12.034 C4.35,14.182 5.485,16.204 7.318,17.633 C8.657,15.837 10.533,14.677 12.472,14.305 C12.472,14.214 12.468,14.112 12.468,14.016 C12.464,11.583 13.976,10.076 15.706,9.631 L0.212102469,2.71612582" id="Fill-7" sketch:type="MSShapeGroup"></path>
            <path d="M7.854,19.671 C7.145,21.005 6.807,22.432 6.807,23.843 C6.807,24.687 6.926,25.52 7.11,26.262 C8.409,26.974 9.878,27.357 11.396,27.357 C12.113,27.357 12.84,27.271 13.573,27.092 C13.348,26.281 13.239,25.472 13.239,24.669 C13.239,22.759 13.845,20.926 14.919,19.408 C13.884,18.291 13.006,16.969 12.645,15.474 C10.655,16.211 8.922,17.652 7.854,19.671" id="Fill-8" sketch:type="MSShapeGroup"></path>
            <path d="M15.406,27.972 C15.406,27.972 15.406,27.972 15.404,27.972 L15.308,28.017 L15.312,28.017 L15.406,27.972" id="Fill-9" sketch:type="MSShapeGroup"></path>
            <path d="M20.239,32.575 C22.242,31.709 23.934,30.119 24.873,27.989 C22.589,27.043 20.902,25.267 20.048,23.217 C19.318,22.84 17.434,21.785 15.717,20.206 C15.068,21.465 14.723,22.869 14.723,24.301 C14.723,25.514 14.964,26.748 15.5,27.928 C16.484,30.133 18.25,31.736 20.239,32.575" id="Fill-10" sketch:type="MSShapeGroup"></path>
            <path d="M15.5,27.928 L15.404,27.972 L15.406,27.972 L15.5,27.928" id="Fill-11" sketch:type="MSShapeGroup"></path>
            <path d="M49.033,21.708 L41.24,30.915 L47.981,30.915 C48.705,30.915 49.297,31.509 49.297,32.232 C49.297,32.954 48.705,33.577 47.981,33.577 L38.181,33.577 C37.49,33.577 36.835,32.92 36.835,32.2 C36.835,31.868 36.964,31.509 37.193,31.213 L44.957,22.002 L38.181,22.002 C37.455,22.002 36.835,21.376 36.835,20.653 C36.835,19.931 37.455,19.338 38.181,19.338 L47.817,19.338 C48.74,19.338 49.362,20.027 49.362,20.817 C49.362,21.147 49.264,21.442 49.033,21.708" id="Fill-12" sketch:type="MSShapeGroup"></path>
            <path d="M58.603,21.609 C56.4,21.609 54.892,23.054 54.561,25.161 L62.65,25.161 C62.357,23.154 60.774,21.609 58.603,21.609 L58.603,21.609 Z M64.658,27.428 C64.658,27.428 64.658,27.428 54.495,27.428 C54.659,29.633 56.433,31.276 58.802,31.276 C60.478,31.276 61.924,30.587 63.078,29.466 C63.307,29.239 63.571,29.172 63.87,29.172 C64.265,29.172 64.658,29.369 64.919,29.699 C65.085,29.928 65.182,30.194 65.182,30.456 C65.182,30.815 65.018,31.213 64.721,31.509 C63.344,32.984 61.004,33.976 58.704,33.976 C54.526,33.976 51.173,30.619 51.173,26.441 C51.173,22.263 54.426,18.909 58.603,18.909 C62.748,18.909 65.84,22.135 65.84,26.376 C65.84,27 65.281,27.428 64.658,27.428 L64.658,27.428 Z" id="Fill-13" sketch:type="MSShapeGroup"></path>
            <path d="M92.288,21.773 C89.658,21.773 87.979,23.876 87.979,26.441 C87.979,29.006 89.658,31.114 92.288,31.114 C94.922,31.114 96.595,29.105 96.595,26.441 C96.595,23.777 94.922,21.773 92.288,21.773 L92.288,21.773 Z M98.207,33.842 C97.322,33.842 96.595,33.119 96.595,32.232 L96.595,31.475 C95.678,33.055 93.938,33.976 91.894,33.976 C87.714,33.976 84.756,30.75 84.756,26.441 C84.756,22.135 87.616,18.909 91.894,18.909 C93.998,18.909 95.777,19.931 96.595,21.442 L96.595,12.96 C96.595,12.072 97.322,11.378 98.207,11.378 C99.097,11.378 99.819,12.072 99.819,12.96 L99.819,32.232 C99.819,33.119 99.097,33.842 98.207,33.842 L98.207,33.842 Z" id="Fill-14" sketch:type="MSShapeGroup"></path>
            <path d="M110.13,21.609 C107.925,21.609 106.412,23.054 106.085,25.161 L114.175,25.161 C113.878,23.154 112.297,21.609 110.13,21.609 L110.13,21.609 Z M116.183,27.428 C116.183,27.428 116.183,27.428 106.015,27.428 C106.183,29.633 107.959,31.276 110.327,31.276 C112.001,31.276 113.45,30.587 114.604,29.466 C114.834,29.239 115.099,29.172 115.39,29.172 C115.783,29.172 116.183,29.369 116.444,29.699 C116.607,29.928 116.708,30.194 116.708,30.456 C116.708,30.815 116.54,31.213 116.246,31.509 C114.864,32.984 112.528,33.976 110.229,33.976 C106.051,33.976 102.696,30.619 102.696,26.441 C102.696,22.263 105.95,18.909 110.13,18.909 C114.27,18.909 117.367,22.135 117.367,26.376 C117.367,27 116.806,27.428 116.183,27.428 L116.183,27.428 Z" id="Fill-15" sketch:type="MSShapeGroup"></path>
            <path d="M125.387,33.976 C123.774,33.976 121.675,33.449 120.127,32.526 C119.633,32.232 119.334,31.77 119.334,31.276 C119.334,31.114 119.4,30.947 119.467,30.783 C119.666,30.323 120.028,30.026 120.49,30.026 C120.688,30.026 120.951,30.093 121.144,30.226 C122.362,30.947 123.774,31.376 125.193,31.376 C126.803,31.376 128.547,30.915 128.547,29.633 C128.547,28.644 127.66,28.283 124.301,27.133 C121.543,26.181 120.094,24.93 120.094,22.89 C120.094,20.456 122.526,18.909 125.719,18.909 C127.89,18.909 129.273,19.371 130.653,20.027 C131.211,20.29 131.541,20.72 131.541,21.245 C131.541,21.411 131.508,21.542 131.44,21.708 C131.242,22.233 130.747,22.561 130.191,22.561 C130.026,22.561 129.864,22.525 129.733,22.46 C128.547,21.903 127.298,21.575 125.979,21.575 C124.236,21.575 123.154,21.972 123.154,23.021 C123.154,24.072 124.007,24.304 126.473,25.091 C129.468,26.082 131.572,27.101 131.572,29.566 C131.572,31.968 129.37,33.976 125.387,33.976" id="Fill-16" sketch:type="MSShapeGroup"></path>
            <path d="M146.324,33.81 C145.894,33.842 145.465,33.646 145.171,33.315 L139.744,27.133 L138.101,28.418 L138.101,32.232 C138.101,33.119 137.407,33.842 136.518,33.842 C135.635,33.842 134.941,33.119 134.941,32.232 L134.941,12.989 C134.941,12.104 135.635,11.378 136.518,11.378 C137.407,11.378 138.101,12.104 138.101,12.989 L138.101,24.666 L144.941,19.371 C145.204,19.172 145.5,19.044 145.83,19.044 C146.288,19.044 146.683,19.273 146.981,19.6 C147.177,19.865 147.342,20.161 147.342,20.521 C147.342,20.981 147.11,21.376 146.749,21.675 L142.111,25.323 L147.379,31.376 C147.604,31.639 147.737,32.002 147.737,32.363 C147.737,33.151 147.11,33.776 146.324,33.81" id="Fill-17" sketch:type="MSShapeGroup"></path>
            <path d="M75.393,18.844 C71.661,18.844 68.58,21.754 68.58,25.658 L68.58,32.397 C68.58,33.298 69.284,34 70.186,34 C71.086,34 71.818,33.298 71.818,32.397 L71.818,25.759 C71.818,23.522 73.054,21.806 75.393,21.761 C77.734,21.806 78.968,23.522 78.968,25.759 L78.968,32.397 C78.968,33.298 79.705,34 80.605,34 C81.506,34 82.205,33.298 82.205,32.397 L82.205,25.658 C82.205,21.754 79.13,18.844 75.393,18.844" id="Fill-18" sketch:type="MSShapeGroup"></path>
            <path d="M146.128,12.601 C146.128,12.478 146.045,12.404 145.865,12.404 L145.545,12.404 C145.521,12.404 145.521,12.412 145.521,12.437 L145.521,12.764 C145.521,12.789 145.521,12.797 145.545,12.797 L145.865,12.797 C146.045,12.797 146.128,12.74 146.128,12.601 L146.128,12.601 Z M145.127,13.617 L145.127,12.256 C145.127,12.141 145.2,12.067 145.324,12.067 L145.89,12.067 C146.283,12.067 146.505,12.272 146.505,12.601 C146.505,12.838 146.39,12.994 146.209,13.084 L146.456,13.535 C146.48,13.577 146.488,13.617 146.488,13.659 C146.488,13.749 146.406,13.831 146.308,13.831 C146.218,13.831 146.151,13.773 146.119,13.691 L145.816,13.142 L145.545,13.142 C145.521,13.142 145.521,13.158 145.521,13.174 L145.521,13.617 C145.521,13.749 145.438,13.831 145.324,13.831 C145.2,13.831 145.127,13.749 145.127,13.617 L145.127,13.617 Z M147.006,12.945 C147.006,12.231 146.472,11.698 145.774,11.698 C145.077,11.698 144.544,12.231 144.544,12.945 C144.544,13.667 145.077,14.2 145.774,14.2 C146.472,14.2 147.006,13.667 147.006,12.945 L147.006,12.945 Z M144.208,12.945 C144.208,12.067 144.889,11.378 145.774,11.378 C146.661,11.378 147.342,12.067 147.342,12.945 C147.342,13.831 146.661,14.52 145.774,14.52 C144.889,14.52 144.208,13.831 144.208,12.945 L144.208,12.945 Z" id="Fill-19" sketch:type="MSShapeGroup"></path>
        </g>
    </g>
</svg>